<?xml version="1.0" encoding="UTF-8"?>
<svg id="a" data-name="Layer 1" xmlns="http://www.w3.org/2000/svg" viewBox="0 0 268.14 203.38">
  <path d="M120.05,201.06c1.52,1.37-.11,1.81-1.48,1.99-13.11,1.67-33.31-3.37-45.48-8.53C19.49,171.81-1.07,108.27.04,54.05c25.23,1.16,50.95,5.43,73.56,17-1.12,9.03-4.37,18.33-5.43,27.63-4.58,40.14,13.45,85.68,51.87,102.39Z" style="fill: #7fe0b8;"/>
  <path d="M268.05,54.05c2.18,72.07-37.87,152.87-120,149-.5-2.34.29-1.61,1.28-2.24,17.61-11.26,28.62-18.71,38.88-38.09,15.42-29.13,14.17-61.55,5.88-92.62,23.67-9.28,48.39-15.27,73.95-16.06Z" style="fill: #7fe0b8;"/>
  <path d="M133.73.16c1.56-.42,1.78.01,2.8.91,1.83,1.61,5.98,6.7,8.04,8.96,14.67,16.16,27.58,34.94,35.36,55.41-17.27,10.25-32.76,22.89-45.37,38.58-12.92-15.74-28.9-28.2-46.37-38.58,4.22-12.06,10.82-23.28,18.06-33.71,3.49-5.03,23.38-30.45,27.5-31.57Z" style="fill: #06aa5b;"/>
  <path d="M118.04,188.05c-22-13.06-35.39-36.48-38.86-61.63-2.26-16.41-.47-35.01,5.37-50.35,16.31,9.76,32,21.5,42.35,37.7-2.63,8.02-6.94,15.1-9.34,23.28-5.25,17.85-5.89,33.36.49,51Z" style="fill: #06aa5b;"/>
  <path d="M150.05,187.04c7.46-16.66,5.44-36.3-.29-53.2-2.37-6.98-6.68-13.13-8.54-20.04.73-3.53,16.21-19.16,19.82-22.26,2.94-2.52,19.83-15.25,22.41-14.45,3.08,6.4,5.12,16.16,5.64,23.42,1.92,26.72-3.33,52.4-21.07,73.01-2.14,2.48-15.68,15.21-17.97,13.52Z" style="fill: #06aa5b;"/>
  <path d="M133.07,195.04c-12.1-21.06-11.86-49.02,1.97-68.99,8.25,19.2,12.54,39.08,4.77,59.26-.68,1.76-4.57,11.25-6.74,9.73Z" style="fill: #06aa5b;"/>
</svg>